<svg viewBox="0 0 40 40" fill="none" xmlns="http://www.w3.org/2000/svg">
  <defs>
    <linearGradient id="g" x1="0" y1="0" x2="1" y2="1">
      <stop offset="0" stop-color="#14764F"/>
      <stop offset="1" stop-color="#33C68C"/>
    </linearGradient>
  </defs>
  <rect width="40" height="40" rx="11" fill="url(#g)"/>
  <!-- minarets -->
  <rect x="9.2" y="15" width="2.4" height="11" rx="1.2" fill="#fff" opacity=".85"/>
  <circle cx="10.4" cy="14" r="1.5" fill="#fff" opacity=".85"/>
  <rect x="28.4" y="15" width="2.4" height="11" rx="1.2" fill="#fff" opacity=".85"/>
  <circle cx="29.6" cy="14" r="1.5" fill="#fff" opacity=".85"/>
  <!-- dome -->
  <path d="M13.5 25 C13.5 16.5 26.5 16.5 26.5 25 Z" fill="#fff"/>
  <rect x="19" y="9.5" width="2" height="3" rx="1" fill="#fff"/>
  <circle cx="20" cy="8" r="1.6" fill="#fff"/>
  <!-- open book -->
  <path d="M8 26 C12 23.4 17.5 23.4 20 25.4 C22.5 23.4 28 23.4 32 26 L32 30 C28 27.4 22.5 27.4 20 29.4 C17.5 27.4 12 27.4 8 30 Z" fill="#fff" opacity=".95"/>
  <path d="M20 25.4 L20 29.4" stroke="#14764F" stroke-width="1" opacity=".25"/>
</svg>
